<mxfile host="app.diagrams.net" agent="Mozilla/5.0 (Windows NT 10.0; Win64; x64) AppleWebKit/537.36 (KHTML, like Gecko) Chrome/131.0.0.0 Safari/537.36" version="25.0.1">
  <diagram name="Страница — 1" id="qgDDK7oeOMO8bFpdq9mx">
    <mxGraphModel dx="1434" dy="738" grid="1" gridSize="10" guides="1" tooltips="1" connect="1" arrows="1" fold="1" page="1" pageScale="1" pageWidth="827" pageHeight="1169" math="0" shadow="0">
      <root>
        <mxCell id="0" />
        <mxCell id="1" parent="0" />
        <mxCell id="DkRzQOzBXED1qI9LSNd_-1" value="" style="swimlane;startSize=0;" vertex="1" parent="1">
          <mxGeometry x="120" y="160" width="140" height="200" as="geometry" />
        </mxCell>
        <mxCell id="DkRzQOzBXED1qI9LSNd_-2" value="" style="swimlane;startSize=0;" vertex="1" parent="1">
          <mxGeometry x="520" y="160" width="140" height="200" as="geometry" />
        </mxCell>
        <mxCell id="DkRzQOzBXED1qI9LSNd_-4" value="" style="endArrow=classic;html=1;rounded=0;exitX=1.007;exitY=0.8;exitDx=0;exitDy=0;exitPerimeter=0;" edge="1" parent="1" source="DkRzQOzBXED1qI9LSNd_-1">
          <mxGeometry width="50" height="50" relative="1" as="geometry">
            <mxPoint x="270" y="320" as="sourcePoint" />
            <mxPoint x="360" y="320" as="targetPoint" />
          </mxGeometry>
        </mxCell>
        <mxCell id="DkRzQOzBXED1qI9LSNd_-5" value="" style="endArrow=classic;html=1;rounded=0;exitX=1.007;exitY=0.195;exitDx=0;exitDy=0;exitPerimeter=0;" edge="1" parent="1" source="DkRzQOzBXED1qI9LSNd_-1">
          <mxGeometry width="50" height="50" relative="1" as="geometry">
            <mxPoint x="390" y="270" as="sourcePoint" />
            <mxPoint x="360" y="199" as="targetPoint" />
          </mxGeometry>
        </mxCell>
        <mxCell id="DkRzQOzBXED1qI9LSNd_-6" value="" style="endArrow=classic;html=1;rounded=0;" edge="1" parent="1">
          <mxGeometry width="50" height="50" relative="1" as="geometry">
            <mxPoint x="30" y="259.66" as="sourcePoint" />
            <mxPoint x="120" y="259.66" as="targetPoint" />
          </mxGeometry>
        </mxCell>
        <mxCell id="DkRzQOzBXED1qI9LSNd_-7" value="" style="endArrow=none;dashed=1;html=1;dashPattern=1 3;strokeWidth=2;rounded=0;" edge="1" parent="1">
          <mxGeometry width="50" height="50" relative="1" as="geometry">
            <mxPoint x="380" y="200" as="sourcePoint" />
            <mxPoint x="400" y="200" as="targetPoint" />
          </mxGeometry>
        </mxCell>
        <mxCell id="DkRzQOzBXED1qI9LSNd_-8" value="" style="endArrow=none;dashed=1;html=1;dashPattern=1 3;strokeWidth=2;rounded=0;" edge="1" parent="1">
          <mxGeometry width="50" height="50" relative="1" as="geometry">
            <mxPoint x="380" y="320" as="sourcePoint" />
            <mxPoint x="400" y="320" as="targetPoint" />
          </mxGeometry>
        </mxCell>
        <mxCell id="DkRzQOzBXED1qI9LSNd_-9" value="" style="endArrow=classic;html=1;rounded=0;" edge="1" parent="1">
          <mxGeometry width="50" height="50" relative="1" as="geometry">
            <mxPoint x="420" y="200" as="sourcePoint" />
            <mxPoint x="500" y="200" as="targetPoint" />
          </mxGeometry>
        </mxCell>
        <mxCell id="DkRzQOzBXED1qI9LSNd_-10" value="" style="endArrow=classic;html=1;rounded=0;" edge="1" parent="1">
          <mxGeometry width="50" height="50" relative="1" as="geometry">
            <mxPoint x="420" y="320" as="sourcePoint" />
            <mxPoint x="500" y="320" as="targetPoint" />
          </mxGeometry>
        </mxCell>
        <mxCell id="DkRzQOzBXED1qI9LSNd_-11" value="" style="endArrow=classic;html=1;rounded=0;" edge="1" parent="1">
          <mxGeometry width="50" height="50" relative="1" as="geometry">
            <mxPoint x="660" y="260" as="sourcePoint" />
            <mxPoint x="760" y="260" as="targetPoint" />
            <Array as="points" />
          </mxGeometry>
        </mxCell>
        <mxCell id="DkRzQOzBXED1qI9LSNd_-12" value="Gen&lt;div&gt;&lt;br&gt;&lt;/div&gt;" style="text;html=1;align=center;verticalAlign=middle;resizable=0;points=[];autosize=1;strokeColor=none;fillColor=none;" vertex="1" parent="1">
          <mxGeometry x="145" y="233" width="50" height="40" as="geometry" />
        </mxCell>
      </root>
    </mxGraphModel>
  </diagram>
</mxfile>
